{"glyphs":{":":{"x_min":0,"x_max":259,"ha":259,"o":"m 91 100 q 121 100 135 88 q 149 77 149 53 q 149 19 133 2 q 118 -15 86 -15 q 55 -15 41 -4 q 28 6 28 31 q 28 63 44 82 q 61 100 91 100 z m 151 463 q 181 463 195 452 q 209 440 209 417 q 209 382 193 365 q 178 348 146 348 q 115 348 102 359 q 88 370 88 395 q 88 427 104 445 q 121 463 151 463 z"},"$":{"x_min":0,"x_max":500,"ha":500,"o":"m 258 288 l 216 37 q 269 47 298 82 q 327 117 327 171 q 327 205 311 233 q 294 261 258 288 z m 284 623 q 238 616 212 585 q 186 554 186 507 q 186 479 200 456 q 214 433 249 404 z m 302 734 l 330 734 l 319 667 q 357 666 395 659 q 433 652 471 640 l 452 536 q 394 587 364 605 q 334 624 314 624 l 313 624 l 274 386 l 327 340 q 375 299 394 265 q 412 230 412 187 q 412 108 355 54 q 299 -1 209 -7 l 198 -76 l 170 -76 l 180 -8 q 127 -3 90 4 q 52 11 28 21 l 46 130 q 108 74 136 55 q 164 36 182 36 l 188 36 l 232 305 q 164 359 136 401 q 108 442 108 487 q 108 562 158 611 q 208 660 291 666 z"},"?":{"x_min":0,"x_max":417,"ha":417,"o":"m 151 100 q 176 100 189 89 q 201 77 201 53 q 201 19 188 2 q 174 -15 146 -15 q 119 -15 107 -4 q 95 7 95 31 q 95 63 110 82 q 125 100 151 100 z m 330 353 l 243 267 q 220 244 211 229 q 202 214 199 197 l 194 161 l 147 161 l 154 203 q 154 205 155 208 q 162 248 187 281 l 259 374 q 296 422 314 460 q 332 499 332 530 q 332 575 307 600 q 282 625 238 625 q 199 625 98 539 q 81 524 71 516 l 93 643 q 132 653 171 659 q 210 664 250 664 q 327 664 375 626 q 422 588 422 527 q 422 488 398 442 q 374 397 330 353 z"},"<":{"x_min":0,"x_max":833,"ha":833,"o":"m 704 497 l 216 298 l 704 100 l 704 37 l 129 273 l 129 323 l 704 559 z"},"'":{"x_min":0,"x_max":149,"ha":149,"o":"m 103 700 l 103 430 l 46 430 l 46 700 z"},"=":{"x_min":0,"x_max":833,"ha":833,"o":"m 709 233 l 709 176 l 124 176 l 124 233 z m 709 420 l 709 363 l 124 363 l 124 420 z"},"a":{"x_min":0,"x_max":468,"ha":468,"o":"m 328 408 q 314 415 301 418 q 289 421 277 421 q 243 421 217 406 q 190 391 168 359 q 140 318 123 260 q 106 203 106 145 q 106 104 120 82 q 133 59 158 59 q 175 59 198 68 q 221 78 275 109 z m 336 438 l 415 466 l 350 99 q 349 92 348 86 q 347 80 347 76 q 347 66 352 62 q 356 59 371 59 l 400 59 q 372 27 344 10 q 315 -8 291 -8 q 276 -8 268 0 q 260 7 260 21 q 260 30 265 53 q 267 63 268 69 l 275 103 q 228 48 187 20 q 146 -8 112 -8 q 71 -8 46 31 q 21 69 21 135 q 21 189 35 243 q 49 297 73 337 q 112 402 159 436 q 207 470 257 470 q 282 470 302 462 q 322 454 336 438 z"},"L":{"x_min":0,"x_max":433,"ha":433,"o":"m 106 655 l 274 655 q 224 603 213 539 q 212 535 212 533 l 125 36 l 219 36 q 252 36 292 56 q 331 77 407 137 l 363 0 l -2 0 q 23 25 36 51 q 50 77 57 122 l 132 546 q 134 555 135 564 q 136 574 136 583 q 136 595 129 611 q 123 627 106 655 z"},"3":{"x_min":0,"x_max":500,"ha":500,"o":"m 273 332 q 338 324 373 283 q 408 243 408 175 q 408 92 343 37 q 277 -17 174 -17 q 127 -17 82 -9 q 36 -1 -7 14 l 15 138 l 25 126 q 117 23 170 23 q 232 23 275 67 q 317 111 317 177 q 317 240 280 277 q 243 313 172 321 q 264 351 313 404 q 362 456 362 524 q 362 572 337 598 q 313 625 270 625 q 254 625 240 620 q 225 615 212 605 l 100 516 l 124 641 q 163 653 200 659 q 238 665 276 665 q 359 665 406 627 q 453 589 453 522 q 453 458 406 409 q 360 360 273 332 z"},";":{"x_min":0,"x_max":259,"ha":259,"o":"m 8 -126 q 33 -100 48 -70 q 63 -41 71 -5 l 69 -5 q 51 -5 42 6 q 32 18 32 39 q 32 66 49 83 q 66 100 94 100 q 117 100 130 84 q 143 69 143 42 q 143 -20 103 -70 q 63 -120 8 -126 z m 151 463 q 181 463 195 452 q 209 440 209 417 q 209 382 193 365 q 178 348 146 348 q 115 348 102 359 q 88 370 88 395 q 88 427 104 445 q 121 463 151 463 z"},"J":{"x_min":0,"x_max":280,"ha":280,"o":"m 120 655 l 286 655 q 239 607 227 535 l 226 533 l 141 56 l 140 48 q 116 -83 80 -130 q 52 -167 9 -187 q -35 -206 -89 -206 q -115 -206 -137 -203 q -159 -200 -174 -194 l -157 -91 q -116 -133 -94 -149 q -72 -164 -55 -164 q -16 -164 8 -127 q 33 -90 48 -7 l 147 546 q 148 553 149 562 q 150 571 150 583 q 150 595 143 611 q 137 627 120 655 z"},"V":{"x_min":0,"x_max":519,"ha":519,"o":"m 31 655 l 193 655 q 177 635 169 616 q 162 597 162 575 q 162 567 162 563 q 163 559 163 555 l 214 86 l 445 539 q 447 542 451 550 q 474 597 474 609 q 474 615 468 626 q 462 636 447 655 l 599 655 q 554 617 517 550 l 516 549 l 217 12 l 146 -15 l 85 531 q 80 578 67 604 q 55 630 31 655 z"},"\"":{"x_min":0,"x_max":288,"ha":288,"o":"m 242 700 l 242 430 l 184 430 l 184 700 z m 103 700 l 103 430 l 46 430 l 46 700 z"},"7":{"x_min":0,"x_max":500,"ha":500,"o":"m 123 659 l 534 659 q 398 445 303 278 q 208 111 158 0 l 54 0 l 430 581 l 234 581 q 219 581 210 580 q 201 578 195 575 q 176 565 149 544 q 123 524 90 495 z"},"S":{"x_min":0,"x_max":463,"ha":463,"o":"m 447 638 l 431 533 q 366 587 337 604 q 307 621 285 621 q 234 621 199 588 q 165 555 165 506 q 165 477 180 452 q 195 427 240 389 q 250 381 268 366 q 325 318 347 295 q 368 274 378 246 q 389 218 389 184 q 389 95 326 40 q 263 -14 158 -14 q 122 -14 83 -7 q 44 0 4 14 l 23 123 q 78 70 111 49 q 144 28 170 28 q 227 28 265 66 q 303 104 303 163 q 303 222 228 285 q 223 290 220 292 l 213 298 q 85 408 85 487 q 85 568 145 616 q 205 664 307 664 q 344 664 379 657 q 414 651 447 638 z"},"}":{"x_min":0,"x_max":500,"ha":500,"o":"m 275 543 l 275 424 q 275 350 302 319 q 329 289 395 289 q 398 289 406 290 q 413 290 417 290 l 417 228 q 413 228 406 229 q 398 229 395 229 q 329 229 302 199 q 275 168 275 94 l 275 -24 q 275 -99 264 -130 q 253 -161 227 -178 q 208 -191 179 -197 q 151 -202 101 -202 l 81 -202 l 81 -141 q 85 -141 92 -142 q 100 -142 103 -142 q 162 -142 183 -119 q 204 -96 204 -22 l 204 95 q 204 176 225 210 q 247 244 301 259 q 247 274 225 308 q 204 342 204 423 l 204 541 q 204 614 183 637 q 161 660 100 660 l 81 660 l 81 721 l 98 721 q 147 721 177 715 q 207 709 227 696 q 253 679 264 648 q 275 617 275 543 z"},"Z":{"x_min":0,"x_max":498,"ha":498,"o":"m 112 655 l 536 655 l 98 41 l 251 41 q 291 41 333 60 q 376 79 441 128 l 403 0 l -28 0 l 414 615 l 274 615 q 215 615 114 547 q 100 538 93 533 z"},"x":{"x_min":0,"x_max":440,"ha":440,"o":"m 156 473 l 234 287 l 296 357 q 303 365 306 372 q 309 379 309 390 q 309 395 307 402 q 306 409 303 415 l 286 451 q 306 461 326 467 q 347 473 365 473 q 382 473 392 463 q 402 454 402 437 q 402 422 390 401 q 378 379 360 362 l 247 255 l 315 85 q 321 69 326 66 q 332 62 350 62 l 379 62 q 361 32 337 13 q 313 -5 293 -5 q 272 -5 257 29 q 256 31 256 32 l 184 208 l 98 105 l 97 104 q 83 87 83 77 q 83 73 84 69 q 85 65 87 61 l 107 16 q 87 6 66 0 q 46 -5 29 -5 q 10 -5 -1 5 q -11 16 -11 34 q -11 53 2 73 q 15 94 43 121 l 170 242 l 124 353 q 118 368 110 380 q 103 392 97 397 l 54 432 z"},")":{"x_min":0,"x_max":259,"ha":259,"o":"m 104 712 q 159 662 188 585 q 216 509 216 409 q 216 304 189 191 q 162 79 115 -11 q 83 -73 39 -121 q -5 -169 -63 -206 q -19 -154 17 -77 q 53 0 86 114 q 114 209 128 302 q 143 396 143 479 q 143 547 134 605 q 124 662 104 712 z"},"&":{"x_min":0,"x_max":653,"ha":653,"o":"m 328 327 q 262 327 232 321 q 203 314 178 299 q 146 279 129 246 q 112 213 112 171 q 112 106 155 71 q 197 36 276 36 q 326 36 363 44 q 399 53 416 68 q 425 76 431 91 q 437 105 441 133 l 475 327 z m 478 639 l 461 537 q 455 542 444 551 q 361 623 321 623 q 268 623 234 583 q 200 543 200 480 q 200 450 210 427 q 220 403 240 389 q 254 379 271 375 q 288 370 317 370 l 341 370 l 645 370 l 638 327 l 560 327 l 547 246 q 533 164 516 126 q 500 89 470 60 q 433 24 377 4 q 322 -16 257 -16 q 148 -16 85 34 q 23 84 23 172 q 23 249 77 297 q 132 345 227 352 q 172 362 141 398 q 110 435 110 489 q 110 562 172 613 q 235 664 328 664 q 374 664 410 658 q 447 652 478 639 z"},"_":{"x_min":0,"x_max":500,"ha":500,"o":"m 500 -178 l 500 -236 l 0 -236 l 0 -178 z"},"v":{"x_min":0,"x_max":398,"ha":398,"o":"m 134 470 l 176 89 l 295 332 q 305 351 309 363 q 313 375 313 382 q 313 396 307 411 q 301 426 287 447 q 310 458 328 464 q 347 470 362 470 q 379 470 390 460 q 401 449 401 432 q 401 421 396 409 q 392 396 378 373 l 155 -8 l 113 -8 l 77 325 q 74 354 68 371 q 62 388 51 399 l 20 430 z"},"O":{"x_min":0,"x_max":586,"ha":586,"o":"m 459 431 q 459 526 427 575 q 396 623 334 623 q 281 623 238 580 q 195 537 168 455 q 148 396 137 333 q 126 271 126 218 q 126 126 160 76 q 194 25 255 25 q 306 25 344 62 q 383 100 414 179 q 436 235 447 301 q 459 367 459 431 z m 345 664 q 442 664 495 600 q 548 537 548 420 q 548 355 534 291 q 521 227 497 175 q 452 79 388 32 q 324 -15 238 -15 q 144 -15 91 51 q 38 116 38 234 q 38 300 54 367 q 70 435 98 489 q 143 576 205 620 q 268 664 345 664 z"},"(":{"x_min":0,"x_max":259,"ha":259,"o":"m 327 712 q 283 659 247 582 q 211 505 178 392 q 150 296 136 203 q 121 109 121 27 q 121 -42 131 -100 q 140 -157 160 -206 q 105 -157 76 -80 q 48 -3 48 97 q 48 204 75 316 q 102 429 148 517 q 180 578 224 626 q 268 674 327 712 z"},"C":{"x_min":0,"x_max":539,"ha":539,"o":"m 550 639 l 529 532 l 439 606 q 430 614 414 618 q 399 623 381 623 q 335 623 291 598 q 246 572 210 526 q 171 476 149 396 q 126 316 126 228 q 126 141 170 85 q 215 30 283 30 q 301 30 318 34 q 334 39 347 48 l 471 134 l 432 9 q 393 -3 352 -9 q 312 -15 272 -15 q 161 -15 98 49 q 35 114 35 227 q 35 335 70 427 q 104 519 169 581 q 211 622 270 643 q 328 664 398 664 q 437 664 475 658 q 513 651 550 639 z"},"W":{"x_min":0,"x_max":845,"ha":845,"o":"m 34 655 l 195 655 q 179 636 172 618 q 165 600 165 577 q 165 574 166 566 q 166 559 166 555 l 199 107 l 505 670 l 551 96 l 768 539 q 782 566 788 584 q 795 601 795 609 q 795 615 789 626 q 783 636 768 655 l 921 655 q 896 634 876 610 q 856 585 837 549 l 553 13 l 482 -15 l 441 462 l 204 13 l 134 -15 l 88 531 q 84 571 72 599 q 60 627 34 655 z"},"A":{"x_min":0,"x_max":532,"ha":532,"o":"m 320 583 l 183 306 l 346 306 z m 382 672 l 446 104 q 449 71 461 47 q 473 24 497 0 l 339 0 q 355 21 361 35 q 367 50 367 65 q 367 72 367 77 q 367 82 366 88 l 350 267 l 164 267 l 75 88 q 66 70 63 62 q 61 55 61 48 q 61 41 67 30 q 72 19 86 0 l -70 0 q -45 20 -25 44 q -5 69 15 104 l 312 647 z"},"f":{"x_min":0,"x_max":273,"ha":273,"o":"m 439 692 l 421 602 l 346 657 q 335 665 325 668 q 314 672 303 672 q 254 672 229 627 q 205 583 193 463 l 310 463 l 304 426 l 187 426 l 120 50 q 94 -96 51 -151 q 7 -206 -76 -206 q -98 -206 -117 -201 q -136 -196 -153 -186 l -136 -92 l -76 -150 q -67 -159 -59 -163 q -51 -167 -42 -167 q -14 -167 3 -135 q 20 -102 34 -14 l 107 426 l 46 426 l 52 463 l 114 463 q 124 599 173 654 q 222 709 331 709 q 356 709 383 705 q 410 701 439 692 z"},"Q":{"x_min":0,"x_max":586,"ha":586,"o":"m 302 -6 q 312 -13 333 -27 q 491 -135 557 -135 q 570 -135 585 -134 q 600 -132 615 -130 q 583 -168 551 -190 q 520 -212 496 -212 q 457 -212 377 -159 q 297 -105 195 -10 q 120 3 79 67 q 38 131 38 234 q 38 300 54 367 q 70 435 98 489 q 143 576 205 620 q 268 664 345 664 q 442 664 495 600 q 548 537 548 420 q 548 258 481 143 q 414 27 302 -6 z m 459 431 q 459 526 427 575 q 396 623 334 623 q 281 623 238 580 q 195 537 168 455 q 148 396 137 333 q 126 271 126 218 q 126 126 160 76 q 194 25 255 25 q 306 25 344 62 q 383 100 414 179 q 436 235 447 301 q 459 367 459 431 z"},"w":{"x_min":0,"x_max":648,"ha":648,"o":"m 136 470 l 179 106 l 342 464 l 384 464 l 427 81 l 549 345 q 557 361 559 368 q 561 375 561 380 q 561 385 559 392 q 557 399 553 408 l 534 449 q 559 460 576 465 q 593 470 609 470 q 628 470 639 461 q 649 453 649 436 q 649 426 645 413 q 640 400 631 383 l 412 -12 l 365 -12 l 327 332 l 169 -12 l 118 -12 l 74 358 q 73 370 69 380 q 64 390 58 397 l 25 433 z"},"-":{"x_min":0,"x_max":243,"ha":243,"o":"m 6 269 l 224 269 l 211 205 l -7 205 z"},"E":{"x_min":0,"x_max":475,"ha":475,"o":"m 103 655 l 479 655 l 459 546 q 413 589 382 604 q 352 619 316 619 l 224 619 l 178 355 l 258 355 q 289 355 318 367 q 348 379 386 407 l 362 262 q 325 298 304 309 q 283 319 251 319 l 172 319 l 122 36 l 222 36 q 261 36 308 61 q 356 85 414 136 l 370 0 l -5 0 q 21 26 34 52 q 48 79 55 122 l 130 546 q 132 555 133 564 q 134 574 134 583 q 134 595 127 610 q 121 625 103 655 z"},"s":{"x_min":0,"x_max":341,"ha":341,"o":"m 315 454 l 300 369 q 250 406 227 417 q 204 429 187 429 q 157 429 137 410 q 117 391 117 363 q 117 348 126 333 q 136 318 158 298 l 209 254 q 240 227 256 198 q 271 170 271 141 q 271 73 226 29 q 182 -15 112 -15 q 85 -15 57 -10 q 29 -4 -1 6 l 15 102 l 18 99 q 97 25 133 25 q 165 25 186 49 q 207 73 207 108 q 207 127 198 145 q 188 163 168 180 l 114 227 q 78 258 65 281 q 52 305 52 333 q 52 391 98 430 q 144 469 214 469 q 235 469 260 466 q 284 462 315 454 z"},">":{"x_min":0,"x_max":833,"ha":833,"o":"m 704 323 l 704 273 l 129 37 l 129 100 l 617 298 l 129 497 l 129 559 z"},"l":{"x_min":0,"x_max":231,"ha":231,"o":"m 226 709 l 112 82 q 112 81 111 77 q 110 73 110 72 q 110 64 115 61 q 119 58 134 58 l 161 58 q 129 24 103 9 q 77 -7 53 -7 q 39 -7 31 0 q 24 6 24 18 q 24 21 25 27 q 25 33 27 43 l 125 577 q 126 587 127 595 q 128 603 128 610 q 128 620 125 629 q 123 639 118 648 l 100 681 z"},"8":{"x_min":0,"x_max":500,"ha":500,"o":"m 237 319 q 164 276 129 231 q 94 187 94 135 q 94 80 126 50 q 158 20 216 20 q 276 20 315 59 q 354 98 354 158 q 354 195 336 225 q 318 255 275 289 z m 311 361 q 375 319 406 273 q 437 228 437 175 q 437 92 372 38 q 307 -17 207 -17 q 119 -17 67 24 q 14 65 14 134 q 14 197 65 247 q 116 298 218 337 q 154 384 128 421 q 102 458 102 501 q 102 573 159 619 q 215 666 304 666 q 384 666 433 628 q 482 591 482 531 q 482 478 439 435 q 396 392 311 361 z m 291 379 q 348 413 378 452 q 408 491 408 531 q 408 574 378 602 q 347 630 299 630 q 247 630 214 600 q 180 570 180 524 q 180 496 195 472 q 209 448 257 407 z"},"\\":{"x_min":0,"x_max":243,"ha":243,"o":"m 109 -93 l 46 655 l 94 655 l 157 -93 z"},"e":{"x_min":0,"x_max":391,"ha":391,"o":"m 159 244 l 112 244 q 108 225 106 204 q 104 184 104 160 q 104 107 123 81 q 142 54 180 54 q 208 54 247 67 q 285 81 328 106 q 291 50 240 20 q 189 -11 135 -11 q 79 -11 49 28 q 19 67 19 142 q 19 205 36 266 q 54 326 85 371 q 119 420 162 445 q 205 469 256 469 q 304 469 332 443 q 360 417 360 374 q 360 309 310 276 q 260 244 159 244 z m 117 268 q 202 278 242 305 q 282 333 282 381 q 282 405 269 419 q 255 433 232 433 q 193 433 163 391 q 134 349 117 268 z"},"b":{"x_min":0,"x_max":468,"ha":468,"o":"m 106 58 q 119 50 133 47 q 147 43 163 43 q 239 43 289 121 q 338 200 338 321 q 338 361 324 382 q 310 402 281 402 q 258 402 229 389 q 199 376 158 348 z m 222 708 l 160 360 q 209 416 250 443 q 290 469 325 469 q 370 469 395 430 q 420 392 420 322 q 420 274 407 222 q 395 170 375 134 q 335 62 289 28 q 243 -6 186 -6 q 162 -6 141 1 q 120 8 100 22 l 19 -8 l 121 572 q 123 582 124 592 q 125 601 125 612 q 125 624 118 640 q 111 656 94 683 z"},"%":{"x_min":0,"x_max":512,"ha":512,"o":"m 390 266 q 352 266 328 216 q 305 166 305 82 q 305 48 316 33 q 327 17 351 17 q 391 17 412 67 q 434 116 434 207 q 434 236 423 251 q 412 266 390 266 z m 245 93 q 245 184 288 240 q 332 296 401 296 q 444 296 469 266 q 494 235 494 183 q 494 94 450 39 q 406 -16 336 -16 q 293 -16 269 13 q 245 42 245 93 z m 471 600 l 489 585 l 64 56 l 47 70 z m 174 635 q 136 635 113 585 q 89 536 89 454 q 89 417 100 401 q 110 385 134 385 q 174 385 197 436 q 219 487 219 576 q 219 604 208 620 q 196 635 174 635 z m 30 460 q 30 552 73 608 q 116 665 185 665 q 228 665 253 635 q 278 604 278 552 q 278 461 236 407 q 194 352 123 352 q 80 352 55 381 q 30 410 30 460 z"},"m":{"x_min":0,"x_max":718,"ha":718,"o":"m 183 471 l 161 358 q 228 419 271 445 q 315 471 352 471 q 381 471 397 455 q 413 439 413 410 q 413 398 411 385 q 410 372 406 357 q 464 414 512 443 q 559 471 595 471 q 624 471 641 455 q 658 439 658 412 q 658 406 656 393 q 654 379 651 361 l 600 97 q 600 95 599 91 q 596 80 596 76 q 596 67 602 63 q 608 60 631 60 l 652 60 q 622 28 594 11 q 566 -6 544 -6 q 528 -6 521 0 q 514 7 514 21 q 514 26 515 36 q 517 46 522 75 l 574 355 q 576 362 576 368 q 577 374 577 378 q 577 390 568 396 q 560 403 545 403 q 528 403 489 389 q 450 375 404 351 l 339 0 l 265 0 l 329 356 q 329 357 329 358 q 331 372 331 379 q 331 389 323 396 q 315 403 303 403 q 283 403 244 389 q 206 375 159 351 l 98 0 l 19 0 l 83 345 q 84 354 84 359 q 85 364 85 367 q 85 373 82 383 q 79 393 74 402 l 56 435 z"},"#":{"x_min":0,"x_max":769,"ha":769,"o":"m 475 421 l 346 421 l 300 288 l 428 288 z m 450 711 l 369 481 l 496 481 l 578 711 l 648 711 l 568 481 l 718 481 l 697 421 l 545 421 l 499 288 l 660 288 l 639 228 l 477 228 l 396 -1 l 325 -1 l 407 228 l 278 228 l 196 -1 l 126 -1 l 207 228 l 51 228 l 72 288 l 228 288 l 275 421 l 108 421 l 129 481 l 297 481 l 379 711 z"},",":{"x_min":0,"x_max":250,"ha":250,"o":"m 2 -126 q 26 -100 42 -70 q 58 -41 65 -5 l 63 -5 q 45 -5 36 6 q 27 18 27 39 q 27 66 44 83 q 61 100 88 100 q 111 100 125 84 q 138 69 138 42 q 138 -20 98 -70 q 58 -120 2 -126 z"},"n":{"x_min":0,"x_max":472,"ha":472,"o":"m 183 471 l 160 354 q 213 412 261 442 q 310 471 352 471 q 380 471 396 456 q 412 440 412 413 q 412 405 410 390 q 408 375 405 357 l 355 95 q 354 86 353 81 q 352 76 352 74 q 352 65 358 62 q 365 59 384 59 l 406 59 q 381 29 351 11 q 322 -7 298 -7 q 283 -7 275 0 q 267 7 267 20 q 267 26 269 38 q 270 50 273 65 l 328 343 q 330 352 331 360 q 332 368 332 376 q 332 390 325 396 q 318 402 303 402 q 277 402 241 388 q 205 374 158 345 l 96 0 l 21 0 l 81 340 q 82 350 83 355 q 83 360 83 364 q 83 372 81 381 q 79 391 75 398 l 57 433 z"},"h":{"x_min":0,"x_max":472,"ha":472,"o":"m 222 708 l 160 356 q 222 415 267 443 q 312 470 348 470 q 378 470 395 454 q 412 438 412 411 q 412 401 410 387 q 408 374 404 351 l 359 99 q 357 92 357 86 q 356 81 356 76 q 356 66 360 62 q 365 59 380 59 l 409 59 q 381 27 354 10 q 326 -7 301 -7 q 287 -7 279 0 q 271 6 271 19 q 271 27 276 59 q 277 65 278 69 l 326 346 q 327 354 329 361 q 330 368 330 369 q 330 386 323 393 q 316 400 299 400 q 278 400 244 387 q 209 374 159 347 l 96 0 l 20 0 l 121 572 q 123 582 124 592 q 125 601 125 612 q 125 623 118 638 q 111 653 93 683 z"},"z":{"x_min":0,"x_max":428,"ha":428,"o":"m 80 463 l 412 463 l 76 60 q 86 63 98 65 q 111 67 125 67 l 240 67 q 267 67 280 72 q 293 76 312 90 l 367 132 q 345 43 324 20 q 304 -4 251 -4 l 234 -4 l 61 3 l 35 3 q 13 3 -4 2 q -21 0 -33 -2 l 299 396 l 155 396 q 141 396 130 392 q 119 389 111 381 l 56 329 z"},"B":{"x_min":0,"x_max":514,"ha":514,"o":"m 171 313 l 124 36 l 195 36 q 273 36 316 77 q 358 119 358 195 q 358 257 322 285 q 286 313 205 313 z m 226 619 l 178 349 l 218 349 q 303 349 348 391 q 393 434 393 514 q 393 571 365 595 q 336 619 266 619 z m 106 655 l 282 655 q 389 655 435 621 q 481 588 481 512 q 481 438 432 389 q 384 340 300 331 q 370 324 408 287 q 447 251 447 192 q 447 102 383 51 q 320 0 206 0 l -2 0 q 23 25 36 51 q 50 77 57 122 l 132 546 q 134 555 135 564 q 136 574 136 583 q 136 595 129 611 q 123 627 106 655 z"},"K":{"x_min":0,"x_max":546,"ha":546,"o":"m 421 655 l 606 655 q 572 633 543 611 q 514 588 490 567 l 272 369 l 433 78 q 445 57 462 37 q 479 17 499 0 l 378 0 l 187 353 l 401 555 q 404 558 408 562 q 446 596 446 611 q 446 618 441 627 q 436 637 421 655 z m 106 655 l 272 655 q 225 607 212 535 l 212 533 l 137 109 q 135 100 134 91 q 133 82 133 72 q 133 59 140 42 q 147 24 163 0 l -2 0 q 23 25 36 51 q 50 77 57 122 l 132 546 q 134 555 135 564 q 136 574 136 583 q 136 595 129 611 q 123 627 106 655 z"},"R":{"x_min":0,"x_max":528,"ha":528,"o":"m 228 620 l 180 350 l 225 350 q 300 350 344 396 q 388 442 388 520 q 388 574 363 597 q 337 620 273 620 z m 106 655 l 284 655 q 334 655 361 652 q 387 650 400 644 q 437 628 457 595 q 477 562 477 516 q 477 434 422 382 q 367 331 273 327 l 385 112 q 403 78 425 50 q 446 21 471 0 l 351 0 l 178 340 l 137 109 q 135 98 134 89 q 133 81 133 72 q 133 59 140 42 q 147 24 163 0 l -3 0 q 22 26 36 52 q 50 79 57 122 l 132 546 q 134 555 135 564 q 136 574 136 583 q 136 595 129 611 q 123 627 106 655 z"},"T":{"x_min":0,"x_max":505,"ha":505,"o":"m 55 655 l 554 655 l 533 536 q 527 542 516 552 q 444 616 406 616 l 339 616 l 250 109 q 248 99 247 90 q 246 81 246 72 q 246 59 253 42 q 261 24 276 0 l 110 0 q 156 45 170 121 l 170 122 l 257 616 l 197 616 q 170 616 136 600 q 103 583 35 536 z"},"P":{"x_min":0,"x_max":475,"ha":475,"o":"m 106 655 l 296 655 q 394 655 442 614 q 490 573 490 490 q 490 408 436 351 q 381 294 302 294 q 275 294 252 300 q 229 307 210 319 q 214 318 218 318 q 222 318 230 318 q 311 318 355 367 q 400 416 400 504 q 400 561 371 590 q 342 619 287 619 l 227 619 l 137 109 q 135 98 134 89 q 133 81 133 72 q 133 59 140 42 q 147 24 163 0 l -2 0 q 23 25 36 51 q 50 77 57 122 l 132 546 q 134 555 135 564 q 136 574 136 583 q 136 595 129 611 q 123 627 106 655 z"},"|":{"x_min":0,"x_max":500,"ha":500,"o":"m 281 764 l 281 -236 l 219 -236 l 219 764 z"},"t":{"x_min":0,"x_max":317,"ha":317,"o":"m 134 581 l 210 581 l 188 463 l 327 463 l 321 428 l 182 428 l 122 116 q 121 108 120 101 q 119 93 119 84 q 119 72 126 65 q 133 59 146 59 q 168 59 202 73 q 236 86 281 113 q 242 57 194 24 q 146 -8 102 -8 q 73 -8 56 9 q 38 26 38 54 q 38 62 40 74 q 41 86 45 104 l 105 428 l 42 428 l 49 463 l 112 463 z"},"M":{"x_min":0,"x_max":773,"ha":773,"o":"m 103 655 l 231 655 l 347 154 l 651 655 l 778 655 q 731 607 718 535 l 718 533 l 643 109 q 641 100 640 91 q 639 82 639 72 q 639 59 646 42 q 653 24 669 0 l 503 0 q 550 47 562 117 q 562 120 563 122 l 639 547 l 305 -9 l 176 537 l 105 109 q 103 99 102 90 q 101 81 101 72 q 101 60 108 42 q 116 25 132 0 l -7 0 q 17 24 32 54 q 47 83 54 122 l 130 546 q 132 555 133 564 q 134 574 134 583 q 134 595 127 610 q 121 625 103 655 z"},"g":{"x_min":0,"x_max":495,"ha":495,"o":"m 118 25 q 79 -3 56 -36 q 33 -70 33 -97 q 33 -129 66 -149 q 99 -169 153 -169 q 234 -169 292 -135 q 350 -102 350 -58 q 350 -42 338 -33 q 326 -24 295 -17 z m 229 439 q 188 439 161 401 q 134 363 134 303 q 134 257 156 229 q 179 200 215 200 q 253 200 280 237 q 307 274 307 330 q 307 378 285 408 q 263 439 229 439 z m 496 469 l 484 395 l 339 427 q 361 403 372 376 q 383 350 383 321 q 383 255 334 212 q 286 169 211 169 q 202 169 197 169 q 191 169 186 170 q 165 148 157 134 q 149 120 149 107 q 149 89 218 73 l 224 72 l 330 49 q 382 38 402 20 q 422 2 422 -29 q 422 -54 411 -78 q 400 -102 380 -122 q 341 -161 281 -184 q 222 -206 155 -206 q 69 -206 11 -175 q -46 -145 -46 -101 q -46 -71 -7 -39 q 32 -7 112 28 q 87 34 75 46 q 63 57 63 74 q 63 94 84 114 q 105 133 177 172 q 116 183 85 216 q 53 250 53 304 q 53 376 103 423 q 152 469 229 469 q 257 469 281 462 q 305 455 327 440 z"},"j":{"x_min":0,"x_max":262,"ha":262,"o":"m 209 475 l 129 23 q 116 -53 105 -85 q 93 -117 76 -139 q 50 -172 16 -189 q -18 -206 -58 -206 q -79 -206 -99 -201 q -120 -197 -140 -187 l -124 -92 l -66 -145 q -52 -158 -44 -162 q -37 -166 -29 -166 q -1 -166 14 -138 q 30 -109 47 -14 l 109 336 q 111 346 112 354 q 113 362 113 367 q 113 377 110 387 q 107 398 102 406 l 81 439 z m 208 691 q 228 691 239 680 q 250 669 250 650 q 250 622 235 604 q 219 587 194 587 q 176 587 166 598 q 155 609 155 628 q 155 656 170 674 q 185 691 208 691 z"},"i":{"x_min":0,"x_max":234,"ha":234,"o":"m 187 472 l 118 99 q 118 98 117 96 q 114 82 114 76 q 114 66 119 62 q 124 59 139 59 l 168 59 q 140 27 112 10 q 84 -7 60 -7 q 45 -7 37 0 q 29 7 29 19 q 29 26 34 55 q 35 64 36 69 l 85 336 q 87 351 89 360 q 90 370 90 377 q 90 390 83 407 q 77 424 63 447 z m 179 691 q 199 691 210 680 q 221 669 221 650 q 221 622 206 604 q 190 587 165 587 q 147 587 136 598 q 126 609 126 628 q 126 656 141 674 q 155 691 179 691 z"},"y":{"x_min":0,"x_max":400,"ha":400,"o":"m 131 471 l 180 107 l 302 344 q 306 351 308 361 q 310 372 310 384 q 310 391 308 399 q 307 407 304 413 l 287 449 q 309 460 328 466 q 347 471 361 471 q 377 471 389 461 q 400 451 400 437 q 400 426 394 410 q 387 393 375 371 l 120 -79 q 79 -152 47 -179 q 15 -206 -28 -206 q -41 -206 -55 -202 q -69 -197 -84 -189 l -68 -92 l -20 -135 q -12 -143 -6 -146 q -1 -148 6 -148 q 19 -148 32 -136 q 46 -125 60 -103 l 121 -1 l 74 344 q 74 345 74 348 q 70 375 55 393 l 19 434 z"},"@":{"x_min":0,"x_max":1000,"ha":1000,"o":"m 631 412 l 659 471 l 713 471 l 644 194 q 641 182 640 172 q 638 163 638 155 q 638 133 652 122 q 665 111 692 111 q 714 111 741 123 q 768 134 791 154 q 834 191 859 250 q 884 309 884 374 q 884 504 788 583 q 693 662 535 662 q 453 662 383 637 q 312 611 256 562 q 188 502 153 424 q 118 346 118 251 q 118 167 148 103 q 177 39 239 -10 q 288 -49 356 -71 q 424 -92 500 -92 q 584 -92 663 -68 q 743 -44 808 0 l 830 -32 q 758 -85 677 -113 q 596 -140 508 -140 q 415 -140 338 -117 q 261 -95 203 -50 q 128 7 92 83 q 55 159 55 255 q 55 334 80 406 q 104 477 153 537 q 224 623 323 667 q 423 712 545 712 q 625 712 697 691 q 768 669 818 630 q 881 582 913 518 q 946 454 946 380 q 946 297 915 229 q 885 161 826 114 q 792 87 754 73 q 715 59 674 59 q 625 59 601 78 q 577 97 577 135 q 577 136 578 140 q 578 144 578 146 q 553 104 516 81 q 479 59 433 59 q 358 59 319 101 q 280 142 280 221 q 280 333 347 411 q 414 489 509 489 q 553 489 584 469 q 614 450 631 412 z m 587 231 l 616 349 q 608 393 581 417 q 554 442 515 442 q 444 442 396 378 q 348 313 348 218 q 348 164 373 135 q 398 106 444 106 q 494 106 533 140 q 573 175 587 231 z"},".":{"x_min":0,"x_max":250,"ha":250,"o":"m 91 100 q 121 100 135 88 q 149 77 149 53 q 149 19 133 2 q 118 -15 86 -15 q 55 -15 41 -4 q 28 6 28 31 q 28 63 44 82 q 61 100 91 100 z"},"p":{"x_min":0,"x_max":468,"ha":468,"o":"m 106 55 q 124 48 138 44 q 153 41 167 41 q 237 41 288 122 q 339 203 339 317 q 339 359 325 381 q 312 404 286 404 q 269 404 243 394 q 217 384 159 353 z m 180 469 l 160 359 q 214 418 254 446 q 294 473 326 473 q 370 473 396 435 q 421 397 421 330 q 421 273 405 216 q 389 159 359 111 q 324 55 278 24 q 232 -6 183 -6 q 162 -6 141 1 q 121 8 100 23 l 79 -96 q 76 -113 74 -123 q 73 -132 73 -136 q 73 -146 80 -164 q 86 -181 100 -206 l -57 -206 q -9 -159 6 -75 q 7 -67 8 -63 l 83 344 q 83 348 84 352 q 84 355 84 363 q 84 373 80 385 q 76 397 70 406 l 53 433 z"},"X":{"x_min":0,"x_max":586,"ha":586,"o":"m 105 655 l 262 655 q 250 639 245 628 q 240 617 240 609 q 240 600 250 577 q 252 572 253 569 l 323 402 l 453 577 q 464 591 468 599 q 472 607 472 613 q 472 618 467 627 q 462 637 449 655 l 623 655 q 583 629 556 607 q 530 584 510 559 l 343 357 l 452 101 q 465 70 482 45 q 498 21 519 0 l 360 0 l 362 3 q 385 37 385 48 q 385 59 375 80 q 373 85 371 89 l 282 295 l 120 84 q 106 66 101 57 q 95 48 95 43 q 95 38 101 27 q 106 17 118 0 l -49 0 q -18 20 9 44 q 36 68 59 96 l 263 341 l 165 571 q 156 591 141 612 q 126 633 105 655 z"},"*":{"x_min":0,"x_max":336,"ha":336,"o":"m 211 655 l 253 655 l 206 504 l 317 622 l 343 589 l 207 502 l 364 522 l 356 480 l 207 500 l 311 407 l 278 379 l 206 499 l 198 348 l 155 348 l 204 498 l 88 379 l 63 409 l 201 500 l 44 480 l 52 522 l 202 501 l 95 597 l 128 627 l 203 503 z"},"Y":{"x_min":0,"x_max":503,"ha":503,"o":"m 37 655 l 196 655 q 179 634 174 625 q 169 616 169 609 q 169 604 172 593 q 174 582 180 566 l 263 324 l 433 569 q 445 586 450 598 q 456 609 456 615 q 456 621 450 630 q 445 639 430 655 l 600 655 l 599 654 q 522 600 493 560 l 279 272 l 251 108 q 249 96 248 88 q 247 81 247 72 q 247 60 254 42 q 262 25 278 0 l 112 0 q 137 25 151 52 q 165 79 172 122 l 198 271 l 102 547 q 101 550 99 557 q 78 618 37 655 z"},"c":{"x_min":0,"x_max":370,"ha":370,"o":"m 363 454 l 348 364 l 274 421 q 268 426 258 429 q 248 432 241 432 q 188 432 145 354 q 103 276 103 170 q 103 111 120 85 q 137 59 176 59 q 199 59 231 71 q 263 83 317 112 q 271 53 224 23 q 176 -8 131 -8 q 80 -8 50 33 q 20 75 20 148 q 20 291 88 382 q 155 472 262 472 q 282 472 306 468 q 331 463 363 454 z"},"!":{"x_min":0,"x_max":257,"ha":257,"o":"m 94 100 q 120 100 132 89 q 144 77 144 53 q 144 19 130 2 q 117 -15 89 -15 q 62 -15 50 -4 q 38 7 38 31 q 38 63 53 82 q 68 100 94 100 z m 226 562 l 137 163 l 86 163 l 130 569 q 137 630 149 647 q 161 664 188 664 q 211 664 223 654 q 236 643 236 624 q 236 609 228 571 q 227 565 226 562 z"},"/":{"x_min":0,"x_max":243,"ha":243,"o":"m 214 655 l 262 655 l 12 -93 l -36 -93 z"},"[":{"x_min":0,"x_max":259,"ha":259,"o":"m 184 712 l 318 712 q 271 672 255 647 q 238 623 232 589 l 112 -71 q 110 -81 110 -92 q 109 -103 109 -114 q 109 -128 118 -147 q 126 -167 152 -206 l 16 -206 z"},"6":{"x_min":0,"x_max":500,"ha":500,"o":"m 143 321 q 134 277 129 238 q 125 198 125 161 q 125 92 152 56 q 180 19 231 19 q 285 19 320 71 q 354 122 354 205 q 354 268 322 300 q 290 333 229 333 q 212 333 191 330 q 169 327 143 321 z m 521 612 q 500 618 479 620 q 458 623 437 623 q 329 623 257 555 q 186 488 151 353 q 184 366 216 373 q 247 379 277 379 q 354 379 399 333 q 444 286 444 208 q 444 109 383 46 q 322 -18 227 -18 q 139 -18 89 36 q 39 90 39 187 q 39 266 59 344 q 79 423 115 489 q 162 572 232 619 q 302 666 381 666 q 431 666 465 653 q 500 639 521 612 z"},"r":{"x_min":0,"x_max":343,"ha":343,"o":"m 183 472 l 157 339 q 226 419 257 444 q 288 469 312 469 q 319 469 329 467 q 338 464 350 459 l 332 370 q 318 379 306 384 q 293 388 281 388 q 257 388 226 374 q 194 359 156 330 l 98 0 l 22 0 l 81 336 q 84 352 85 361 q 86 370 86 377 q 86 390 80 407 q 73 424 59 447 z"},"2":{"x_min":0,"x_max":500,"ha":500,"o":"m 316 276 l 84 74 l 234 74 q 283 74 312 90 q 342 106 377 144 l 352 0 l -44 0 l 277 335 q 319 378 341 424 q 363 470 363 513 q 363 564 335 595 q 307 627 261 627 q 246 627 231 621 q 216 614 198 600 l 90 514 l 113 644 q 159 655 197 660 q 235 666 266 666 q 355 666 406 625 q 456 584 456 512 q 456 452 423 396 q 391 341 316 276 z"},"{":{"x_min":0,"x_max":500,"ha":500,"o":"m 419 659 q 415 659 408 660 q 400 660 397 660 q 338 660 317 637 q 296 614 296 541 l 296 423 q 296 342 275 308 q 253 274 199 259 q 253 244 275 210 q 296 176 296 95 l 296 -23 q 296 -96 317 -118 q 338 -141 400 -141 l 419 -141 l 419 -202 l 402 -202 q 354 -202 324 -196 q 294 -190 274 -177 q 247 -159 236 -128 q 225 -97 225 -24 l 225 95 q 225 169 198 199 q 171 229 106 229 q 103 229 95 229 q 88 228 84 228 l 84 290 q 88 290 95 290 q 103 289 106 289 q 171 289 198 319 q 225 349 225 424 l 225 543 q 225 618 236 648 q 247 679 274 696 q 294 709 324 715 q 353 721 402 721 l 419 721 z"},"9":{"x_min":0,"x_max":500,"ha":500,"o":"m -15 36 q 6 30 25 28 q 44 25 63 25 q 175 25 247 92 q 319 159 355 296 q 320 283 289 276 q 257 269 229 269 q 152 269 107 316 q 62 363 62 442 q 62 539 124 603 q 185 666 279 666 q 368 666 417 612 q 467 558 467 461 q 467 381 447 302 q 427 224 391 159 q 345 76 274 29 q 203 -18 124 -18 q 75 -18 41 -5 q 6 8 -15 36 z m 363 327 q 372 371 376 410 q 381 450 381 487 q 381 556 354 592 q 327 628 275 628 q 221 628 186 577 q 152 526 152 443 q 152 381 184 348 q 215 316 277 316 q 296 316 318 319 q 340 322 363 327 z"}," ":{"x_min":0,"x_max":250,"ha":250,"o":""},"I":{"x_min":0,"x_max":269,"ha":269,"o":"m 106 655 l 272 655 q 225 607 212 535 l 212 533 l 137 109 q 135 100 134 91 q 133 82 133 72 q 133 59 140 42 q 147 24 163 0 l -2 0 q 23 25 36 51 q 50 77 57 122 l 132 546 q 134 555 135 564 q 136 574 136 583 q 136 595 129 611 q 123 627 106 655 z"},"H":{"x_min":0,"x_max":616,"ha":616,"o":"m 103 655 l 269 655 q 222 607 209 535 l 209 533 l 179 365 l 450 365 l 482 546 q 484 555 485 564 q 486 574 486 583 q 486 595 479 610 q 473 625 455 655 l 621 655 q 574 607 562 535 l 561 533 l 486 109 q 484 100 483 91 q 482 82 482 72 q 482 60 489 42 q 497 25 513 0 l 347 0 q 372 25 386 52 q 400 79 407 122 l 443 325 l 172 325 l 134 109 q 132 98 131 89 q 130 81 130 72 q 130 59 137 42 q 145 24 160 0 l -6 0 q 20 26 33 52 q 47 79 54 122 l 129 546 q 131 555 132 564 q 133 574 133 583 q 133 595 126 611 q 120 627 103 655 z"},"4":{"x_min":0,"x_max":500,"ha":500,"o":"m 355 561 l 99 259 l 304 259 z m 453 672 l 384 259 l 464 259 l 453 196 l 373 196 l 358 109 q 356 99 355 90 q 354 81 354 72 q 354 59 361 42 q 369 24 384 0 l 218 0 q 266 54 277 116 q 278 120 278 122 l 291 196 l 2 196 l 381 644 z"},"~":{"x_min":0,"x_max":833,"ha":833,"o":"m 747 306 q 698 271 651 253 q 604 236 558 236 q 537 236 514 240 q 491 245 465 253 q 450 258 422 268 q 324 303 275 303 q 234 303 190 285 q 146 267 87 225 l 87 290 q 138 326 186 343 q 233 361 276 361 q 303 361 333 355 q 362 349 418 329 q 425 327 439 321 q 517 293 559 293 q 600 293 644 311 q 688 329 747 370 z"},"D":{"x_min":0,"x_max":620,"ha":620,"o":"m 221 616 l 120 39 l 193 39 q 330 39 407 141 q 485 243 485 423 q 485 514 437 565 q 389 616 304 616 z m 101 655 l 292 655 q 348 655 385 650 q 422 646 445 637 q 507 612 541 554 q 574 497 574 415 q 574 330 547 250 q 520 171 471 113 q 421 55 353 27 q 284 0 185 0 l -6 0 q 19 25 32 51 q 46 77 53 122 l 128 546 q 129 557 130 565 q 131 573 131 580 q 131 595 124 612 q 117 629 101 655 z"},"^":{"x_min":0,"x_max":1000,"ha":1000,"o":"m 539 712 l 793 440 l 716 440 l 500 654 l 284 440 l 206 440 l 460 712 z"},"0":{"x_min":0,"x_max":500,"ha":500,"o":"m 379 488 q 379 557 357 590 q 336 623 291 623 q 258 623 230 598 q 203 574 186 529 q 157 451 139 354 q 122 256 122 166 q 122 90 143 57 q 164 24 210 24 q 249 24 279 56 q 308 87 326 148 q 352 235 365 324 q 379 413 379 488 z m 304 667 q 381 667 423 607 q 466 547 466 438 q 466 365 450 288 q 434 212 403 142 q 371 66 315 24 q 259 -18 192 -18 q 118 -18 76 40 q 34 99 34 203 q 34 293 55 380 q 76 467 113 535 q 148 598 198 633 q 248 667 304 667 z"},"F":{"x_min":0,"x_max":447,"ha":447,"o":"m 103 655 l 478 655 l 458 546 q 411 590 381 604 q 352 619 316 619 l 224 619 l 177 355 l 257 355 q 288 355 317 367 q 347 379 385 407 l 361 262 q 324 298 303 309 q 282 319 250 319 l 170 319 l 134 109 q 132 99 131 90 q 130 81 130 72 q 130 59 137 42 q 145 24 160 0 l -6 0 q 20 26 33 52 q 47 79 54 122 l 129 546 q 131 555 132 564 q 133 574 133 583 q 133 595 126 611 q 120 627 103 655 z"},"`":{"x_min":0,"x_max":500,"ha":500,"o":"m 189 675 l 296 675 l 324 528 l 321 528 z"},"k":{"x_min":0,"x_max":440,"ha":440,"o":"m 318 331 l 220 272 l 324 75 q 330 63 335 61 q 341 58 356 58 l 384 58 q 355 25 333 9 q 312 -7 297 -7 q 285 -7 275 2 q 265 11 256 30 l 147 255 l 147 258 l 304 377 q 310 381 313 387 q 316 392 316 398 q 316 405 315 410 q 314 416 312 420 l 299 447 q 320 458 340 463 q 359 469 376 469 q 393 469 403 459 q 413 448 413 431 q 413 409 391 385 q 369 362 318 331 z m 225 709 l 95 0 l 20 0 l 124 577 q 125 579 125 583 q 128 603 128 610 q 128 619 125 628 q 123 638 117 648 l 100 681 z"},"u":{"x_min":0,"x_max":472,"ha":472,"o":"m 181 472 l 114 116 q 113 108 112 101 q 111 94 111 90 q 111 75 118 68 q 126 61 142 61 q 163 61 196 74 q 230 87 282 115 l 342 447 l 423 468 l 356 98 q 354 88 354 83 q 353 78 353 75 q 353 66 356 64 q 360 61 377 61 l 406 61 q 378 28 351 10 q 323 -8 299 -8 q 284 -8 276 -1 q 268 6 268 19 q 268 26 273 55 q 274 63 275 69 l 281 106 q 217 45 173 19 q 128 -8 93 -8 q 63 -8 46 8 q 29 23 29 50 q 29 60 31 75 q 33 90 37 111 l 79 335 q 82 353 83 362 q 84 370 84 376 q 84 390 78 407 q 71 424 58 447 z"},"]":{"x_min":0,"x_max":259,"ha":259,"o":"m 119 712 l 255 712 l 87 -206 l -47 -206 q -1 -168 16 -143 q 33 -118 39 -83 l 159 577 q 161 591 162 600 q 163 609 163 615 q 163 631 155 650 q 147 668 119 712 z"},"U":{"x_min":0,"x_max":595,"ha":595,"o":"m 95 655 l 261 655 q 214 607 201 535 l 201 533 l 145 213 q 141 191 139 174 q 137 158 137 145 q 137 90 173 59 q 209 28 273 28 q 345 28 380 67 q 415 105 435 218 l 492 546 q 494 556 495 565 q 496 575 496 583 q 496 595 490 611 q 483 627 466 655 l 611 655 q 564 608 551 535 l 551 533 l 494 207 q 473 83 421 34 q 369 -15 264 -15 q 164 -15 110 26 q 56 66 56 142 q 56 157 59 180 q 62 202 70 249 l 122 546 q 124 554 124 563 q 125 572 125 583 q 125 595 118 611 q 112 627 95 655 z"},"o":{"x_min":0,"x_max":455,"ha":455,"o":"m 327 320 q 327 379 307 410 q 286 441 247 441 q 216 441 189 418 q 163 395 145 353 q 124 303 113 250 q 102 196 102 145 q 102 82 122 49 q 142 17 181 17 q 212 17 239 40 q 266 63 284 106 q 305 153 316 209 q 327 264 327 320 z m 255 473 q 329 473 369 430 q 409 386 409 306 q 409 254 397 203 q 384 152 362 112 q 325 44 280 15 q 235 -15 172 -15 q 100 -15 60 29 q 20 73 20 153 q 20 203 31 251 q 41 299 60 336 q 97 406 144 439 q 192 473 255 473 z"},"N":{"x_min":0,"x_max":603,"ha":603,"o":"m 101 655 l 203 655 l 441 177 l 501 546 q 501 549 502 555 q 505 571 505 583 q 505 595 498 611 q 492 627 475 655 l 614 655 q 589 629 575 603 q 561 576 554 533 l 462 -9 l 439 -9 l 175 527 l 105 109 q 103 99 102 90 q 101 81 101 72 q 101 60 108 42 q 116 25 132 0 l -7 0 q 19 26 32 52 q 46 79 53 122 l 128 546 q 129 552 130 562 q 131 571 131 583 q 131 595 124 611 q 118 627 101 655 z"},"+":{"x_min":0,"x_max":833,"ha":833,"o":"m 446 596 l 446 327 l 709 327 l 709 270 l 446 270 l 446 0 l 388 0 l 388 270 l 124 270 l 124 327 l 388 327 l 388 596 z"},"G":{"x_min":0,"x_max":590,"ha":590,"o":"m 580 635 l 562 531 q 553 538 538 551 q 452 621 409 621 q 281 621 205 514 q 129 408 129 228 q 129 132 177 80 q 226 28 315 28 q 336 28 355 30 q 374 32 391 36 l 412 162 q 412 164 413 167 q 416 191 416 202 q 416 213 409 229 q 402 246 387 269 l 553 269 q 549 264 542 254 q 498 198 491 156 l 468 13 q 423 -1 377 -8 q 331 -15 283 -15 q 167 -15 103 49 q 38 112 38 227 q 38 311 60 386 q 82 461 124 523 q 172 593 243 628 q 314 664 406 664 q 450 664 493 657 q 536 649 580 635 z"},"q":{"x_min":0,"x_max":463,"ha":463,"o":"m 330 407 q 316 414 302 417 q 289 421 276 421 q 242 421 216 408 q 190 396 170 369 q 136 323 117 266 q 98 208 98 149 q 98 105 112 83 q 126 60 154 60 q 172 60 205 74 q 238 87 280 113 z m 418 470 l 318 -96 q 315 -109 314 -119 q 313 -130 313 -136 q 313 -146 320 -164 q 326 -181 340 -206 l 183 -206 q 230 -159 245 -77 q 246 -68 247 -63 l 278 104 q 213 35 179 13 q 145 -9 113 -9 q 67 -9 42 27 q 18 63 18 132 q 18 274 88 372 q 159 469 258 469 q 279 469 299 463 q 318 457 337 443 z"},"d":{"x_min":0,"x_max":468,"ha":468,"o":"m 331 410 q 316 417 302 421 q 288 425 274 425 q 203 425 152 343 q 100 261 100 144 q 100 104 114 83 q 127 61 152 61 q 171 61 196 72 q 222 83 278 116 z m 459 711 l 462 709 l 350 92 q 349 84 348 81 q 348 77 348 73 q 348 66 353 64 q 357 61 371 61 l 398 61 q 370 28 342 10 q 314 -8 291 -8 q 277 -8 270 0 q 262 9 262 24 q 262 31 265 48 q 266 52 266 54 l 276 107 q 222 46 183 19 q 144 -8 112 -8 q 67 -8 42 31 q 16 71 16 140 q 16 187 29 237 q 41 288 62 328 q 97 395 149 432 q 200 470 254 470 q 275 470 295 464 q 315 458 339 446 l 366 585 q 367 590 368 595 q 368 600 368 607 q 368 619 365 630 q 363 641 358 648 l 336 682 z"},"1":{"x_min":0,"x_max":500,"ha":500,"o":"m 368 676 l 272 109 q 270 99 269 90 q 268 81 268 72 q 268 59 275 42 q 283 24 298 0 l 132 0 q 180 54 191 118 q 192 121 192 122 l 266 547 l 111 527 q 198 571 259 606 q 319 641 368 676 z"},"5":{"x_min":0,"x_max":500,"ha":500,"o":"m 152 657 l 488 657 l 474 581 l 186 581 l 154 402 q 182 409 201 411 q 221 414 237 414 q 325 414 376 365 q 428 315 428 232 q 428 123 355 52 q 282 -18 168 -18 q 125 -18 82 -9 q 39 0 -2 17 l 19 141 q 81 71 113 46 q 146 21 171 21 q 194 21 220 32 q 246 42 268 62 q 302 91 320 133 q 338 175 338 224 q 338 293 300 328 q 263 364 189 364 q 172 364 150 361 q 127 358 99 353 z"}}}
